<svg width="128" height="128" viewBox="0 0 128 128" fill="none" xmlns="http://www.w3.org/2000/svg">
<rect x="4" y="4" width="120" height="120" rx="60" fill="#C7FFDB"/>
<rect x="12" y="11" width="105" height="105" rx="52.5" fill="#243838"/>
<rect x="19" y="19" width="90" height="90" rx="45" fill="#2F4F4F"/>
<path d="M46.6051 91V36.4545H65.0355C69.2969 36.4545 72.7947 37.1825 75.5291 38.6385C78.2635 40.0767 80.2876 42.0565 81.6016 44.5778C82.9155 47.0991 83.5724 49.9666 83.5724 53.1804C83.5724 56.3942 82.9155 59.244 81.6016 61.7298C80.2876 64.2156 78.2724 66.1687 75.5558 67.5891C72.8391 68.9918 69.3679 69.6932 65.142 69.6932H50.2273V63.7273H64.929C67.8409 63.7273 70.1847 63.3011 71.9602 62.4489C73.7536 61.5966 75.0497 60.3892 75.8487 58.8267C76.6655 57.2464 77.0739 55.3643 77.0739 53.1804C77.0739 50.9964 76.6655 49.0877 75.8487 47.4542C75.032 45.8207 73.7269 44.56 71.9336 43.6722C70.1403 42.7667 67.7699 42.3139 64.8224 42.3139H53.2102V91H46.6051ZM72.2798 66.4972L85.7031 91H78.0327L64.8224 66.4972H72.2798Z" fill="white"/>
</svg>
